# xmcd
#
# Track frame offsets: 
#        150
#        5859
#        7092
#        10080
#        14210
#        176653
#        199201
#        207034
#        212789
#        214571
#        244018
#        269898
#        287127
#
# Disc length: 3870 seconds
#
# Revision: 0
# Processed by: cddbd v1.5.2PL0 Copyright (c) Steve Scherf et al.
# Submitted via: ExactAudioCopy v0.95b4
#
DISCID=c80f1c0d
DTITLE=The Beatles  - AB  Road - Complete Purple Chick Set v1.1 Jan.27
DTITLE=Various Artist - D3  FLAC
DYEAR=1900
DGENRE=
TTITLE0=The Long And Winding Road Rehearsal
TTITLE1=The Long And Winding Road 27.24
TTITLE2=Save The Last Dance For Me 27.25
TTITLE3=Improvisation 27.26
TTITLE4=Old Brown Shoe 27.27
TTITLE5=Improvisation 27.28
TTITLE6=Hi Heel Sneakers 27.29
TTITLE7=Get Back 27.30
TTITLE8=Improvisation 27.31
TTITLE9=Improvisation 27.32
TTITLE10=I Told You Before 27.33
TTITLE11=I Told You Before 27.33 reprise
TTITLE12=Improvisation 27.34
EXTD=
EXTT0=
EXTT1=
EXTT2=
EXTT3=
EXTT4=
EXTT5=
EXTT6=
EXTT7=
EXTT8=
EXTT9=
EXTT10=
EXTT11=
EXTT12=
PLAYORDER=
